<svg width="70" height="100" viewBox="0 0 70 100" fill="none" xmlns="http://www.w3.org/2000/svg">
<path fill-rule="evenodd" clip-rule="evenodd" d="M59.9039 19.6863C64.3646 19.6863 67.9808 16.1748 67.9808 11.8431C67.9808 7.51149 64.3646 4 59.9039 4C57.1198 4 54.6648 5.36778 53.2125 7.44906C47.0946 10.3947 41.3416 15.9871 37.5075 23.4258C36.0414 26.2702 34.9661 29.1709 34.2662 32.0334C15.275 32.4127 0 47.4807 0 66.0131C0 84.7835 15.67 100 35 100L70 100V65.3595H69.9937C69.6571 48.0331 55.9683 33.8788 38.5015 32.1941C39.0705 29.6923 39.9894 27.1491 41.2731 24.6584C43.9392 19.4858 47.7355 15.4008 51.8868 12.8026C52.374 16.6817 55.7776 19.6863 59.9039 19.6863ZM54.6637 65.3595H54.6875V84.4771H35V84.4604C24.4763 84.2877 16 75.9498 16 65.6894C16 55.321 24.6558 46.9157 35.3333 46.9157C45.8974 46.9157 54.4824 55.1433 54.6637 65.3595ZM41.7308 64.7059C43.9612 64.7059 45.7692 62.9501 45.7692 60.7843C45.7692 58.6185 43.9612 56.8627 41.7308 56.8627C39.5004 56.8627 37.6923 58.6185 37.6923 60.7843C37.6923 62.9501 39.5004 64.7059 41.7308 64.7059Z" fill="#6B46C1"/>
</svg>
