<svg xmlns="http://www.w3.org/2000/svg" width="279.219" height="280.481" viewBox="0 0 279.219 280.481">
  <g id="Group_232" data-name="Group 232" transform="translate(-142.472 -12.368)" style="isolation: isolate">
    <path id="Path_592" data-name="Path 592" d="M340.115,164.488h3.124c38.122,0,72.2-27.044,77.616-64.774a76.1,76.1,0,0,0-75.241-87.346H292.021v92.014h48.094V60.727a.261.261,0,0,1,.265-.265h3.862c13.718,0,26.433,9.245,28.865,22.756a27.994,27.994,0,0,1-27.494,33.188H237.045V12.368H188.963V116.406H142.472v48.082a46.5,46.5,0,0,1,46.491,46.482v60.472h48.082V164.488Z" fill="#fff"/>
    <path id="Path_593" data-name="Path 593" d="M203.539,26.607H155.445v94.931h48.094V74.7A27.963,27.963,0,0,1,231.5,102.664v40.281h48.1V102.667a76.059,76.059,0,0,0-76.062-76.06Z" transform="translate(136.576 149.904)" fill="#fff"/>
  </g>
</svg>
